# xmcd CD database file
#
# Track frame offsets:
#	150
#	9810
#	18500
#	29373
#	37875
#	46530
#	57365
#	69128
#	79305
#	92380
#	105115
#	115018
#	127785
#	138235
#	147175
#	159375
#	176660
#	189678
#	199808
#	225690
#
# Disc length: 3157 seconds
#
# Revision: 2
# Processed by: cddbd v1.5.1PL2 Copyright (c) Steve Scherf et al.
# Submitted via: CDex 1.51
#
DISCID=ea0c5314
DTITLE=Elvis Presley - Christmas Peace [CDOne)
DYEAR=2003
DGENRE=Rock and Roll
TTITLE0=Blue Christmas
TTITLE1=Here Comes Santa Claus (Right Down Santa Claus Lane)
TTITLE2=White Christmas
TTITLE3=Santa Bring My Baby Back (To Me)
TTITLE4=I'll Be Home For Christmas
TTITLE5=Santa Claus Is Back In Town
TTITLE6=O Little Town of Bethlehem
TTITLE7=Silent Night
TTITLE8=If Everyday Was Like Christmas
TTITLE9=O Come, All Ye Faithful
TTITLE10=The First Noel
TTITLE11=On A Snowy Christmas Night
TTITLE12=Winter Wonderland
TTITLE13=The Wonderful World Of Christmas
TTITLE14=It Won't Seem Like Christmas (Without You)
TTITLE15=I'll Be Home On Christmas Day
TTITLE16=If I Get Home On Christmas Day
TTITLE17=Holly Leaves And Christmas Trees
TTITLE18=Merry Christmas Baby
TTITLE19=Silver Bells
EXTD=YEAR: 2003
EXTT0=
EXTT1=
EXTT2=
EXTT3=
EXTT4=
EXTT5=
EXTT6=
EXTT7=
EXTT8=
EXTT9=
EXTT10=
EXTT11=
EXTT12=
EXTT13=
EXTT14=
EXTT15=
EXTT16=
EXTT17=
EXTT18=
EXTT19=
PLAYORDER=
